<?xml version="1.0" encoding="UTF-8"?>
<!DOCTYPE svg PUBLIC "-//W3C//DTD SVG 1.1//EN" "http://www.w3.org/Graphics/SVG/1.1/DTD/svg11.dtd">
<svg xmlns="http://www.w3.org/2000/svg" version="1.1" width="1138px" height="1104px" style="shape-rendering:geometricPrecision; text-rendering:geometricPrecision; image-rendering:optimizeQuality; fill-rule:evenodd; clip-rule:evenodd" xmlns:xlink="http://www.w3.org/1999/xlink">
<g><path style="opacity:1" fill="#60b77a" d="M 756.5,114.5 C 757.194,119.915 758.86,124.915 761.5,129.5C 765.428,140.915 768.928,152.581 772,164.5C 779.544,195.892 787.211,227.226 795,258.5C 802.36,302.466 811.193,346.133 821.5,389.5C 820.932,391.369 820.266,393.203 819.5,395C 827.794,428.471 834.294,462.304 839,496.5C 846.125,526.584 851.958,556.917 856.5,587.5C 856.77,592.45 857.77,597.117 859.5,601.5C 861.883,610.192 864.216,619.026 866.5,628C 866.294,629.865 865.628,631.532 864.5,633C 872.105,663.457 877.938,694.29 882,725.5C 886.813,749.066 892.313,772.399 898.5,795.5C 898.613,801.461 899.613,807.128 901.5,812.5C 903.324,819.464 904.991,826.464 906.5,833.5C 906.975,837.084 907.975,840.417 909.5,843.5C 909.415,846.649 910.415,849.316 912.5,851.5C 912.629,853.216 912.962,854.883 913.5,856.5C 913.415,859.649 914.415,862.316 916.5,864.5C 917.167,867.167 917.833,869.833 918.5,872.5C 918.41,875.152 919.076,877.485 920.5,879.5C 922.068,881.811 922.902,884.478 923,887.5C 925.628,889.126 927.961,891.126 930,893.5C 930.26,897.25 930.927,900.916 932,904.5C 939.508,916.184 947.508,927.517 956,938.5C 965.152,949.977 976.652,957.81 990.5,962C 994.782,963.157 999.116,963.99 1003.5,964.5C 1008.32,965.166 1013.32,965.499 1018.5,965.5C 1025.41,965.724 1032.08,965.058 1038.5,963.5C 1055.91,952.923 1069.41,938.589 1079,920.5C 1083.74,905.613 1088.07,890.613 1092,875.5C 1093.28,866.212 1093.78,856.879 1093.5,847.5C 1099.21,847.171 1104.87,847.505 1110.5,848.5C 1108.28,852.541 1107.11,856.874 1107,861.5C 1106.94,876.168 1106.94,890.835 1107,905.5C 1104.95,920.015 1102.12,934.348 1098.5,948.5C 1099.4,950.239 1100.07,952.072 1100.5,954C 1095.05,972.685 1088.22,990.852 1080,1008.5C 1071.08,1024.43 1059.58,1038.26 1045.5,1050C 1015.15,1069.29 984.812,1069.29 954.5,1050C 947.674,1044.35 940.674,1038.85 933.5,1033.5C 930.573,1032.2 927.573,1031.2 924.5,1030.5C 922.937,1029.06 921.604,1027.39 920.5,1025.5C 920.741,1023.1 920.074,1021.1 918.5,1019.5C 911.824,1003.85 904.991,988.185 898,972.5C 894.846,963.209 892.346,953.875 890.5,944.5C 890.741,942.102 890.074,940.102 888.5,938.5C 888.483,936.435 888.15,934.435 887.5,932.5C 886.744,926.131 885.077,920.131 882.5,914.5C 881.518,911.237 880.851,907.903 880.5,904.5C 880.59,901.848 879.924,899.515 878.5,897.5C 874.991,880.27 870.991,863.27 866.5,846.5C 866.57,842.575 865.903,838.909 864.5,835.5C 863.035,813.011 858.702,791.177 851.5,770C 852.867,766.923 853.367,763.756 853,760.5C 850.13,746.474 846.63,732.64 842.5,719C 843.861,717.416 844.528,715.582 844.5,713.5C 844.245,711.033 843.245,709.033 841.5,707.5C 839.107,687.037 835.107,666.87 829.5,647C 830.426,643.861 830.592,640.694 830,637.5C 824.171,609.52 818.671,581.52 813.5,553.5C 808.373,554.788 804.539,557.788 802,562.5C 800.179,571.964 797.179,580.964 793,589.5C 772.562,647.313 751.229,704.646 729,761.5C 726.022,770.744 723.356,780.077 721,789.5C 713.58,804.084 707.913,819.417 704,835.5C 694.468,857.726 685.468,880.393 677,903.5C 674.416,912.417 672.082,921.417 670,930.5C 669.333,933.833 669.333,937.167 670,940.5C 671.503,944.172 673.003,947.838 674.5,951.5C 671.913,961.354 670.08,971.354 669,981.5C 662.687,997.778 656.687,1014.11 651,1030.5C 649,1033.83 647,1037.17 645,1040.5C 634.833,1049.33 625.333,1058.83 616.5,1069C 609.022,1073.24 601.356,1077.24 593.5,1081C 586.414,1082.68 579.247,1083.85 572,1084.5C 556.871,1082.17 542.371,1078 528.5,1072C 524.938,1068.94 521.938,1065.44 519.5,1061.5C 508.125,1056.63 498.625,1049.29 491,1039.5C 483.667,1024.83 476.333,1010.17 469,995.5C 467.705,991.241 466.705,986.908 466,982.5C 463.467,976.568 461.134,970.568 459,964.5C 454.764,941.988 449.764,919.654 444,897.5C 437.432,866.993 431.765,836.326 427,805.5C 425.027,794.44 422.193,783.606 418.5,773C 419.394,771.604 420.061,770.104 420.5,768.5C 407.993,704.94 396.327,641.273 385.5,577.5C 381.167,577.5 376.833,577.5 372.5,577.5C 370.827,587.018 368.327,596.351 365,605.5C 356.853,625.734 348.853,646.067 341,666.5C 339.438,670.014 338.605,673.681 338.5,677.5C 335.932,682.41 334.932,687.743 335.5,693.5C 332.295,695.871 329.628,698.704 327.5,702C 322.798,719.015 316.965,735.515 310,751.5C 306.402,760.627 303.402,769.96 301,779.5C 272.63,854.742 244.463,930.409 216.5,1006.5C 214.603,1008.7 213.603,1011.36 213.5,1014.5C 209.114,1028.16 204.614,1041.83 200,1055.5C 196.833,1061 193.667,1066.5 190.5,1072C 155.162,1072.83 119.829,1072.67 84.5,1071.5C 93.3328,1051.51 102.166,1031.51 111,1011.5C 111.333,1006.83 111.667,1002.17 112,997.5C 114.64,994.86 117.306,992.194 120,989.5C 122.2,980.368 124.867,971.368 128,962.5C 137.552,941.697 146.052,920.364 153.5,898.5C 155.935,894.201 157.602,889.534 158.5,884.5C 162.916,872.63 167.916,860.963 173.5,849.5C 174.486,845.03 174.819,840.363 174.5,835.5C 177.13,833.372 179.63,831.039 182,828.5C 185.726,812.724 191.393,797.724 199,783.5C 212.202,745.665 226.535,708.332 242,671.5C 242.797,667.776 243.797,664.11 245,660.5C 266.669,608.781 287.002,556.447 306,503.5C 310.691,492.141 315.691,480.808 321,469.5C 322.186,463.915 322.852,458.249 323,452.5C 329.756,447.231 333.423,440.231 334,431.5C 336.456,426.634 338.623,421.634 340.5,416.5C 343.946,411.483 345.612,405.817 345.5,399.5C 346.097,390.304 345.097,381.304 342.5,372.5C 342.972,370.693 343.306,368.86 343.5,367C 339.771,352.022 336.938,336.855 335,321.5C 328.733,308.663 325.733,294.996 326,280.5C 320.992,272.562 318.159,263.895 317.5,254.5C 317.966,250.018 316.966,246.018 314.5,242.5C 311.426,233.361 308.092,224.361 304.5,215.5C 304.245,213.033 303.245,211.033 301.5,209.5C 298.637,203.764 296.304,197.764 294.5,191.5C 287,180.5 279.5,169.5 272,158.5C 263.207,148.166 252.707,140.499 240.5,135.5C 237.533,133.35 234.2,131.683 230.5,130.5C 229.287,130.747 228.62,131.414 228.5,132.5C 226.952,134.922 225.286,134.922 223.5,132.5C 220.696,131.362 217.696,131.195 214.5,132C 213.944,132.383 213.611,132.883 213.5,133.5C 205.357,135.202 197.023,136.036 188.5,136C 173.445,146.718 159.945,159.218 148,173.5C 137.703,190.774 131.37,209.441 129,229.5C 127.139,231.888 125.806,234.554 125,237.5C 124.5,245.493 124.334,253.493 124.5,261.5C 119.901,261.8 115.401,261.467 111,260.5C 110.333,245.167 110.333,229.833 111,214.5C 112.353,213.315 113.52,211.981 114.5,210.5C 117.761,181.575 123.594,153.241 132,125.5C 141.636,103.897 153.302,83.5641 167,64.5C 202.589,26.3151 240.756,23.4817 281.5,56C 294.836,69.1625 305.336,84.3292 313,101.5C 322.318,122.953 330.151,144.953 336.5,167.5C 336.259,169.898 336.926,171.898 338.5,173.5C 339.132,177.589 340.132,181.589 341.5,185.5C 341.259,187.898 341.926,189.898 343.5,191.5C 347.251,207.937 351.751,224.27 357,240.5C 359.412,258.639 362.579,276.639 366.5,294.5C 366.41,297.152 367.076,299.485 368.5,301.5C 388.153,398.554 406.653,495.887 424,593.5C 430.553,615.719 434.887,638.385 437,661.5C 446.739,712.862 456.739,764.195 467,815.5C 472.05,827.366 475.383,839.699 477,852.5C 484.771,885.473 497.437,916.473 515,945.5C 522.852,955.684 531.685,964.851 541.5,973C 543.167,973.667 544.833,973.667 546.5,973C 554.929,951.057 563.762,929.224 573,907.5C 574.186,901.915 574.852,896.249 575,890.5C 577.677,887.491 580.677,884.824 584,882.5C 584.333,877.167 584.667,871.833 585,866.5C 587.333,864.167 589.667,861.833 592,859.5C 600.333,835.833 608.667,812.167 617,788.5C 628.567,763.801 638.567,738.467 647,712.5C 659.574,684.112 670.574,655.112 680,625.5C 690.232,605.702 698.232,585.036 704,563.5C 708.287,553.295 712.954,543.295 718,533.5C 737.345,481.573 757.012,430.239 777,379.5C 776.43,366.07 774.763,352.736 772,339.5C 767.742,318.879 763.742,298.213 760,277.5C 758.255,271.332 755.922,265.332 753,259.5C 751.278,253.282 750.278,246.949 750,240.5C 745.882,233.255 742.548,225.588 740,217.5C 736.775,199.825 730.775,183.158 722,167.5C 716.363,159.188 710.697,150.854 705,142.5C 702.581,140.415 699.747,139.415 696.5,139.5C 694.833,138.5 693.5,137.167 692.5,135.5C 692.425,132.794 692.092,130.127 691.5,127.5C 686.256,125.339 681.589,122.172 677.5,118C 672.5,117.667 667.5,117.333 662.5,117C 659.083,113.082 654.75,111.582 649.5,112.5C 632.542,112.432 617.208,117.265 603.5,127C 595.667,134.833 587.833,142.667 580,150.5C 569.514,164.817 562.848,180.817 560,198.5C 558.019,208.359 555.852,218.192 553.5,228C 554.394,229.396 555.061,230.896 555.5,232.5C 554.363,236.107 552.696,239.44 550.5,242.5C 546.555,243.491 542.555,243.824 538.5,243.5C 538.334,238.821 538.501,234.155 539,229.5C 541.213,226.905 543.047,224.072 544.5,221C 542.221,218.266 541.221,215.099 541.5,211.5C 545.678,173.852 552.844,136.852 563,100.5C 564.667,98.8333 566.333,97.1667 568,95.5C 574.233,78.3667 582.566,62.3667 593,47.5C 610.904,27.7982 633.07,16.4649 659.5,13.5C 664.606,13.7206 669.606,14.554 674.5,16C 682.277,18.8544 689.944,21.8544 697.5,25C 717.857,42.0216 733.69,62.5216 745,86.5C 746.667,88.5 748.333,90.5 750,92.5C 751.882,99.9724 754.048,107.306 756.5,114.5 Z"/></g>
<g><path style="opacity:0.076" fill="#dddddd" d="M 728.5,48.5 C 719.954,38.4545 710.287,29.6212 699.5,22C 666.901,3.33011 635.901,5.66345 606.5,29C 590.156,44.4933 577.156,62.3267 567.5,82.5C 577.996,53.8384 596.33,31.6717 622.5,16C 654.977,1.43089 684.644,5.76423 711.5,29C 718.144,34.8 723.811,41.3 728.5,48.5 Z"/></g>
<g><path style="opacity:1" fill="#252926" d="M 431.5,600.5 C 442.821,663.912 454.655,727.245 467,790.5C 475.142,832.757 487.142,873.757 503,913.5C 512.174,934.844 525.508,953.178 543,968.5C 543.483,967.552 543.649,966.552 543.5,965.5C 544.931,964.22 545.598,962.553 545.5,960.5C 547.213,959.365 547.88,957.698 547.5,955.5C 549.267,953.208 550.267,950.542 550.5,947.5C 552.213,946.365 552.88,944.698 552.5,942.5C 554.397,940.302 555.397,937.636 555.5,934.5C 556.931,933.22 557.598,931.553 557.5,929.5C 559.397,927.302 560.397,924.636 560.5,921.5C 561.931,920.22 562.598,918.553 562.5,916.5C 564.267,914.208 565.267,911.542 565.5,908.5C 607.576,801.927 649.243,695.261 690.5,588.5C 716.331,522.516 742.165,456.516 768,390.5C 770.284,384.367 771.45,378.033 771.5,371.5C 764.403,319.116 752.903,267.783 737,217.5C 728.023,189.058 714.523,163.058 696.5,139.5C 699.747,139.415 702.581,140.415 705,142.5C 710.697,150.854 716.363,159.188 722,167.5C 730.775,183.158 736.775,199.825 740,217.5C 742.548,225.588 745.882,233.255 750,240.5C 750.278,246.949 751.278,253.282 753,259.5C 755.922,265.332 758.255,271.332 760,277.5C 763.742,298.213 767.742,318.879 772,339.5C 774.763,352.736 776.43,366.07 777,379.5C 757.012,430.239 737.345,481.573 718,533.5C 712.954,543.295 708.287,553.295 704,563.5C 698.232,585.036 690.232,605.702 680,625.5C 670.574,655.112 659.574,684.112 647,712.5C 638.567,738.467 628.567,763.801 617,788.5C 608.667,812.167 600.333,835.833 592,859.5C 589.667,861.833 587.333,864.167 585,866.5C 584.667,871.833 584.333,877.167 584,882.5C 580.677,884.824 577.677,887.491 575,890.5C 574.852,896.249 574.186,901.915 573,907.5C 563.762,929.224 554.929,951.057 546.5,973C 544.833,973.667 543.167,973.667 541.5,973C 531.685,964.851 522.852,955.684 515,945.5C 497.437,916.473 484.771,885.473 477,852.5C 475.383,839.699 472.05,827.366 467,815.5C 456.739,764.195 446.739,712.862 437,661.5C 434.887,638.385 430.553,615.719 424,593.5C 406.653,495.887 388.153,398.554 368.5,301.5C 368.829,298.772 368.163,296.438 366.5,294.5C 362.579,276.639 359.412,258.639 357,240.5C 351.751,224.27 347.251,207.937 343.5,191.5C 343.741,189.102 343.074,187.102 341.5,185.5C 340.132,181.589 339.132,177.589 338.5,173.5C 338.741,171.102 338.074,169.102 336.5,167.5C 330.151,144.953 322.318,122.953 313,101.5C 305.336,84.3292 294.836,69.1625 281.5,56C 240.756,23.4817 202.589,26.3151 167,64.5C 153.302,83.5641 141.636,103.897 132,125.5C 123.594,153.241 117.761,181.575 114.5,210.5C 113.52,211.981 112.353,213.315 111,214.5C 110.333,229.833 110.333,245.167 111,260.5C 115.401,261.467 119.901,261.8 124.5,261.5C 124.334,253.493 124.5,245.493 125,237.5C 125.806,234.554 127.139,231.888 129,229.5C 131.37,209.441 137.703,190.774 148,173.5C 159.945,159.218 173.445,146.718 188.5,136C 197.023,136.036 205.357,135.202 213.5,133.5C 216.764,132.676 220.098,132.342 223.5,132.5C 225.286,134.922 226.952,134.922 228.5,132.5C 229.117,132.389 229.617,132.056 230,131.5C 233.312,133.326 236.812,134.66 240.5,135.5C 252.707,140.499 263.207,148.166 272,158.5C 279.5,169.5 287,180.5 294.5,191.5C 296.304,197.764 298.637,203.764 301.5,209.5C 301.755,211.967 302.755,213.967 304.5,215.5C 308.092,224.361 311.426,233.361 314.5,242.5C 315.508,246.596 316.508,250.596 317.5,254.5C 318.159,263.895 320.992,272.562 326,280.5C 325.733,294.996 328.733,308.663 335,321.5C 336.938,336.855 339.771,352.022 343.5,367C 343.306,368.86 342.972,370.693 342.5,372.5C 345.097,381.304 346.097,390.304 345.5,399.5C 344.076,405.119 342.409,410.786 340.5,416.5C 338.623,421.634 336.456,426.634 334,431.5C 333.423,440.231 329.756,447.231 323,452.5C 322.852,458.249 322.186,463.915 321,469.5C 315.691,480.808 310.691,492.141 306,503.5C 287.002,556.447 266.669,608.781 245,660.5C 243.797,664.11 242.797,667.776 242,671.5C 226.535,708.332 212.202,745.665 199,783.5C 191.393,797.724 185.726,812.724 182,828.5C 179.63,831.039 177.13,833.372 174.5,835.5C 173.662,835.158 173.328,834.492 173.5,833.5C 207.401,747.035 240.734,660.368 273.5,573.5C 277.458,568.232 279.791,562.232 280.5,555.5C 283.645,550.946 286.145,545.946 288,540.5C 290.861,533.749 293.028,526.749 294.5,519.5C 297.081,516.68 298.914,513.346 300,509.5C 302.878,502.7 305.045,495.7 306.5,488.5C 309.771,484.9 311.438,480.566 311.5,475.5C 313.964,471.556 315.63,467.223 316.5,462.5C 325.462,441.465 333.962,420.132 342,398.5C 342.814,393.98 342.647,389.646 341.5,385.5C 340.345,372.055 337.678,359.055 333.5,346.5C 330.76,324.813 326.426,303.479 320.5,282.5C 320.59,279.848 319.924,277.515 318.5,275.5C 311.7,252.268 304.2,229.268 296,206.5C 287.092,185.846 274.592,167.679 258.5,152C 256.922,150.906 255.255,150.072 253.5,149.5C 252.292,146.956 250.292,145.622 247.5,145.5C 246.508,145.672 245.842,145.338 245.5,144.5C 244.713,142.896 243.38,142.229 241.5,142.5C 228.427,136.059 214.761,134.893 200.5,139C 172.118,149.048 152.618,168.215 142,196.5C 134.859,217.375 130.359,238.708 128.5,260.5C 127.532,262.607 127.198,264.941 127.5,267.5C 120.5,267.5 113.5,267.5 106.5,267.5C 106.5,263.833 106.5,260.167 106.5,256.5C 106.533,207.172 115.366,159.505 133,113.5C 142.907,88.8381 157.407,67.3381 176.5,49C 209.623,22.4351 243.289,21.7684 277.5,47C 288.169,55.8573 297.335,66.024 305,77.5C 311.095,86.6844 316.428,96.3511 321,106.5C 325.542,118.853 330.208,131.186 335,143.5C 339.255,156.79 343.255,170.124 347,183.5C 356.391,222.798 365.391,262.131 374,301.5C 393.381,401.234 412.548,500.9 431.5,600.5 Z"/></g>
<g><path style="opacity:0.992" fill="#d6d6d6" d="M 728.5,48.5 C 730.262,49.2623 731.262,50.5956 731.5,52.5C 729.738,51.7377 728.738,50.4044 728.5,48.5 Z"/></g>
<g><path style="opacity:0.322" fill="#e6e6e6" d="M 731.5,52.5 C 735.156,55.8033 737.822,59.8033 739.5,64.5C 736.34,60.8523 733.673,56.8523 731.5,52.5 Z"/></g>
<g><path style="opacity:0.514" fill="#e8e8e8" d="M 739.5,64.5 C 741.588,66.3356 742.921,68.6689 743.5,71.5C 741.412,69.6644 740.079,67.3311 739.5,64.5 Z"/></g>
<g><path style="opacity:0.224" fill="#eaeaea" d="M 743.5,71.5 C 746.874,75.5806 749.207,80.2472 750.5,85.5C 747.659,81.1511 745.326,76.4844 743.5,71.5 Z"/></g>
<g><path style="opacity:0.408" fill="#ebebeb" d="M 750.5,85.5 C 752.625,88.0878 753.958,91.0878 754.5,94.5C 752.375,91.9122 751.042,88.9122 750.5,85.5 Z"/></g>
<g><path style="opacity:1" fill="#9f9f9f" d="M 566.5,84.5 C 566.834,87.491 565.834,89.8243 563.5,91.5C 563.707,88.7594 564.707,86.4261 566.5,84.5 Z"/></g>
<g><path style="opacity:1" fill="#252725" d="M 728.5,48.5 C 728.738,50.4044 729.738,51.7377 731.5,52.5C 733.673,56.8523 736.34,60.8523 739.5,64.5C 740.079,67.3311 741.412,69.6644 743.5,71.5C 745.326,76.4844 747.659,81.1511 750.5,85.5C 751.042,88.9122 752.375,91.9122 754.5,94.5C 754.402,96.5529 755.069,98.2196 756.5,99.5C 756.402,101.553 757.069,103.22 758.5,104.5C 758.477,108.764 759.81,112.431 762.5,115.5C 763.709,121.462 765.709,127.128 768.5,132.5C 768.5,132.833 768.5,133.167 768.5,133.5C 768.732,137.942 770.065,141.942 772.5,145.5C 772.5,145.833 772.5,146.167 772.5,146.5C 773.386,152.811 775.053,158.811 777.5,164.5C 779.076,173.806 781.409,182.806 784.5,191.5C 784.5,191.833 784.5,192.167 784.5,192.5C 787.403,210.586 791.403,228.252 796.5,245.5C 796.336,248.187 796.503,250.854 797,253.5C 797.846,257.388 799.013,261.055 800.5,264.5C 807.366,304.995 815.199,345.329 824,385.5C 839.313,469.726 855.146,553.726 871.5,637.5C 880.579,690.726 890.745,743.726 902,796.5C 907.056,816.268 912.389,835.935 918,855.5C 921.371,865.795 925.204,875.795 929.5,885.5C 938.304,911.167 953.304,932.667 974.5,950C 999.071,964.903 1023.74,965.237 1048.5,951C 1062.18,940.45 1071.52,926.95 1076.5,910.5C 1079.05,907.004 1080.38,903.004 1080.5,898.5C 1081.12,898.389 1081.62,898.056 1082,897.5C 1086.24,880.39 1089.07,863.057 1090.5,845.5C 1098.17,845.5 1105.83,845.5 1113.5,845.5C 1114.11,884.946 1110.28,923.946 1102,962.5C 1095.9,989.806 1084.23,1014.47 1067,1036.5C 1035.36,1070.93 998.527,1077.93 956.5,1057.5C 944.661,1050 933.994,1041 924.5,1030.5C 927.573,1031.2 930.573,1032.2 933.5,1033.5C 940.674,1038.85 947.674,1044.35 954.5,1050C 984.812,1069.29 1015.15,1069.29 1045.5,1050C 1059.58,1038.26 1071.08,1024.43 1080,1008.5C 1088.22,990.852 1095.05,972.685 1100.5,954C 1100.07,952.072 1099.4,950.239 1098.5,948.5C 1102.12,934.348 1104.95,920.015 1107,905.5C 1106.94,890.835 1106.94,876.168 1107,861.5C 1107.11,856.874 1108.28,852.541 1110.5,848.5C 1104.87,847.505 1099.21,847.171 1093.5,847.5C 1093.78,856.879 1093.28,866.212 1092,875.5C 1088.07,890.613 1083.74,905.613 1079,920.5C 1069.41,938.589 1055.91,952.923 1038.5,963.5C 1026.85,964.333 1015.19,964.666 1003.5,964.5C 999.116,963.99 994.782,963.157 990.5,962C 976.652,957.81 965.152,949.977 956,938.5C 947.508,927.517 939.508,916.184 932,904.5C 930.927,900.916 930.26,897.25 930,893.5C 927.961,891.126 925.628,889.126 923,887.5C 922.902,884.478 922.068,881.811 920.5,879.5C 920.829,876.772 920.163,874.438 918.5,872.5C 917.833,869.833 917.167,867.167 916.5,864.5C 916.267,861.458 915.267,858.792 913.5,856.5C 912.962,854.883 912.629,853.216 912.5,851.5C 912.267,848.458 911.267,845.792 909.5,843.5C 909.68,839.714 908.68,836.381 906.5,833.5C 904.991,826.464 903.324,819.464 901.5,812.5C 901.148,806.588 900.148,800.921 898.5,795.5C 892.313,772.399 886.813,749.066 882,725.5C 877.938,694.29 872.105,663.457 864.5,633C 865.628,631.532 866.294,629.865 866.5,628C 864.216,619.026 861.883,610.192 859.5,601.5C 859.23,596.55 858.23,591.883 856.5,587.5C 851.958,556.917 846.125,526.584 839,496.5C 834.294,462.304 827.794,428.471 819.5,395C 820.266,393.203 820.932,391.369 821.5,389.5C 811.193,346.133 802.36,302.466 795,258.5C 787.211,227.226 779.544,195.892 772,164.5C 768.928,152.581 765.428,140.915 761.5,129.5C 760.405,124.216 758.739,119.216 756.5,114.5C 754.048,107.306 751.882,99.9724 750,92.5C 748.333,90.5 746.667,88.5 745,86.5C 733.69,62.5216 717.857,42.0216 697.5,25C 689.944,21.8544 682.277,18.8544 674.5,16C 669.606,14.554 664.606,13.7206 659.5,13.5C 633.07,16.4649 610.904,27.7982 593,47.5C 582.566,62.3667 574.233,78.3667 568,95.5C 566.333,97.1667 564.667,98.8333 563,100.5C 552.844,136.852 545.678,173.852 541.5,211.5C 541.221,215.099 542.221,218.266 544.5,221C 543.047,224.072 541.213,226.905 539,229.5C 538.501,234.155 538.334,238.821 538.5,243.5C 542.555,243.824 546.555,243.491 550.5,242.5C 552.696,239.44 554.363,236.107 555.5,232.5C 555.061,230.896 554.394,229.396 553.5,228C 555.852,218.192 558.019,208.359 560,198.5C 562.848,180.817 569.514,164.817 580,150.5C 587.833,142.667 595.667,134.833 603.5,127C 617.208,117.265 632.542,112.432 649.5,112.5C 654.75,111.582 659.083,113.082 662.5,117C 667.5,117.333 672.5,117.667 677.5,118C 681.589,122.172 686.256,125.339 691.5,127.5C 692.092,130.127 692.425,132.794 692.5,135.5C 683.697,127.265 673.364,121.931 661.5,119.5C 661.082,118.778 660.416,118.278 659.5,118C 651.655,117.178 643.989,117.344 636.5,118.5C 614.615,122.95 597.615,134.617 585.5,153.5C 583.178,154.802 581.845,156.802 581.5,159.5C 579.75,160.659 578.75,162.326 578.5,164.5C 578.672,165.492 578.338,166.158 577.5,166.5C 575.896,167.287 575.229,168.62 575.5,170.5C 575.34,172.153 574.674,173.486 573.5,174.5C 572.069,175.78 571.402,177.447 571.5,179.5C 567.598,188.383 564.765,197.716 563,207.5C 560.516,220.057 559.016,232.724 558.5,245.5C 557.596,246.209 557.263,247.209 557.5,248.5C 550.167,248.5 542.833,248.5 535.5,248.5C 535.5,245.833 535.5,243.167 535.5,240.5C 535.229,227.63 535.896,214.964 537.5,202.5C 538.81,196.712 539.477,190.712 539.5,184.5C 539.771,177.593 540.771,170.926 542.5,164.5C 543.785,161.411 544.451,158.078 544.5,154.5C 544.865,149.344 545.865,144.344 547.5,139.5C 549.744,135.207 551.077,130.54 551.5,125.5C 551.5,125.167 551.5,124.833 551.5,124.5C 553.806,120.915 555.139,116.915 555.5,112.5C 555.928,109.215 556.928,106.215 558.5,103.5C 560.213,102.365 560.88,100.698 560.5,98.5C 562.834,96.8243 563.834,94.491 563.5,91.5C 565.834,89.8243 566.834,87.491 566.5,84.5C 566.328,83.5084 566.662,82.8417 567.5,82.5C 577.156,62.3267 590.156,44.4933 606.5,29C 635.901,5.66345 666.901,3.33011 699.5,22C 710.287,29.6212 719.954,38.4545 728.5,48.5 Z"/></g>
<g><path style="opacity:0.678" fill="#d8d8d8" d="M 431.5,595.5 C 431.5,597.167 431.5,598.833 431.5,600.5C 412.548,500.9 393.381,401.234 374,301.5C 365.391,262.131 356.391,222.798 347,183.5C 343.255,170.124 339.255,156.79 335,143.5C 330.208,131.186 325.542,118.853 321,106.5C 316.428,96.3511 311.095,86.6844 305,77.5C 297.335,66.024 288.169,55.8573 277.5,47C 243.289,21.7684 209.623,22.4351 176.5,49C 157.407,67.3381 142.907,88.8381 133,113.5C 115.366,159.505 106.533,207.172 106.5,256.5C 105.517,260.298 105.183,264.298 105.5,268.5C 103.627,213.741 112.794,160.741 133,109.5C 141.625,90.2397 152.625,72.573 166,56.5C 199.519,22.5438 236.353,18.3772 276.5,44C 296.863,60.5165 312.029,81.0165 322,105.5C 333.524,132.406 342.858,160.073 350,188.5C 360.28,230.288 369.614,272.288 378,314.5C 396.8,408 414.633,501.666 431.5,595.5 Z"/></g>
<g><path style="opacity:1" fill="#9e9e9e" d="M 563.5,91.5 C 563.834,94.491 562.834,96.8243 560.5,98.5C 560.707,95.7594 561.707,93.4261 563.5,91.5 Z"/></g>
<g><path style="opacity:0.161" fill="#e5e5e5" d="M 754.5,94.5 C 755.931,95.7804 756.598,97.4471 756.5,99.5C 755.069,98.2196 754.402,96.5529 754.5,94.5 Z"/></g>
<g><path style="opacity:1" fill="#999999" d="M 560.5,98.5 C 560.88,100.698 560.213,102.365 558.5,103.5C 558.796,101.597 559.463,99.9303 560.5,98.5 Z"/></g>
<g><path style="opacity:0.141" fill="#e7e7e7" d="M 756.5,99.5 C 757.931,100.78 758.598,102.447 758.5,104.5C 757.069,103.22 756.402,101.553 756.5,99.5 Z"/></g>
<g><path style="opacity:1" fill="#acacac" d="M 758.5,104.5 C 760.601,107.797 761.935,111.463 762.5,115.5C 759.81,112.431 758.477,108.764 758.5,104.5 Z"/></g>
<g><path style="opacity:1" fill="#aaaaaa" d="M 555.5,112.5 C 555.139,116.915 553.806,120.915 551.5,124.5C 552.261,120.216 553.595,116.216 555.5,112.5 Z"/></g>
<g><path style="opacity:1" fill="#8b8b8b" d="M 636.5,118.5 C 643.989,117.344 651.655,117.178 659.5,118C 660.416,118.278 661.082,118.778 661.5,119.5C 653.2,118.629 644.867,118.295 636.5,118.5 Z"/></g>
<g><path style="opacity:1" fill="#467e57" d="M 756.5,114.5 C 758.739,119.216 760.405,124.216 761.5,129.5C 758.86,124.915 757.194,119.915 756.5,114.5 Z"/></g>
<g><path style="opacity:0.098" fill="#e0e0e0" d="M 762.5,115.5 C 765.269,120.801 767.269,126.468 768.5,132.5C 765.709,127.128 763.709,121.462 762.5,115.5 Z"/></g>
<g><path style="opacity:1" fill="#48835a" d="M 240.5,135.5 C 236.812,134.66 233.312,133.326 230,131.5C 229.617,132.056 229.117,132.389 228.5,132.5C 228.62,131.414 229.287,130.747 230.5,130.5C 234.2,131.683 237.533,133.35 240.5,135.5 Z"/></g>
<g><path style="opacity:1" fill="#3b6649" d="M 223.5,132.5 C 220.098,132.342 216.764,132.676 213.5,133.5C 213.611,132.883 213.944,132.383 214.5,132C 217.696,131.195 220.696,131.362 223.5,132.5 Z"/></g>
<g><path style="opacity:1" fill="#ababab" d="M 551.5,125.5 C 551.077,130.54 549.744,135.207 547.5,139.5C 548.233,134.555 549.566,129.888 551.5,125.5 Z"/></g>
<g><path style="opacity:1" fill="#c6c6c6" d="M 768.5,133.5 C 770.405,137.216 771.739,141.216 772.5,145.5C 770.065,141.942 768.732,137.942 768.5,133.5 Z"/></g>
<g><path style="opacity:0.573" fill="#e6e6e6" d="M 241.5,142.5 C 243.38,142.229 244.713,142.896 245.5,144.5C 243.847,144.34 242.514,143.674 241.5,142.5 Z"/></g>
<g><path style="opacity:0.357" fill="#e4e4e4" d="M 247.5,145.5 C 250.292,145.622 252.292,146.956 253.5,149.5C 251.147,148.66 249.147,147.326 247.5,145.5 Z"/></g>
<g><path style="opacity:0.016" fill="#e1e1e1" d="M 585.5,153.5 C 584.66,155.853 583.326,157.853 581.5,159.5C 581.845,156.802 583.178,154.802 585.5,153.5 Z"/></g>
<g><path style="opacity:0.643" fill="#b8b8b8" d="M 544.5,154.5 C 544.451,158.078 543.785,161.411 542.5,164.5C 542.322,160.878 542.989,157.544 544.5,154.5 Z"/></g>
<g><path style="opacity:0.163" fill="#ececec" d="M 581.5,159.5 C 581.25,161.674 580.25,163.341 578.5,164.5C 578.75,162.326 579.75,160.659 581.5,159.5 Z"/></g>
<g><path style="opacity:0.165" fill="#d0d0d0" d="M 772.5,146.5 C 774.944,152.181 776.611,158.181 777.5,164.5C 775.053,158.811 773.386,152.811 772.5,146.5 Z"/></g>
<g><path style="opacity:0.957" fill="#d9d9d9" d="M 777.5,164.5 C 780.591,173.194 782.924,182.194 784.5,191.5C 781.409,182.806 779.076,173.806 777.5,164.5 Z"/></g>
<g><path style="opacity:0.533" fill="#cecece" d="M 577.5,166.5 C 577.34,168.153 576.674,169.486 575.5,170.5C 575.229,168.62 575.896,167.287 577.5,166.5 Z"/></g>
<g><path style="opacity:0.694" fill="#d0d0d0" d="M 241.5,142.5 C 209.955,133.625 183.455,141.625 162,166.5C 146.68,185.823 137.347,207.823 134,232.5C 132.48,244.691 130.647,256.691 128.5,268.5C 128.5,265.833 128.5,263.167 128.5,260.5C 130.359,238.708 134.859,217.375 142,196.5C 152.618,168.215 172.118,149.048 200.5,139C 214.761,134.893 228.427,136.059 241.5,142.5 Z"/></g>
<g><path style="opacity:1" fill="#3f6f4e" d="M 336.5,167.5 C 338.074,169.102 338.741,171.102 338.5,173.5C 336.926,171.898 336.259,169.898 336.5,167.5 Z"/></g>
<g><path style="opacity:0.42" fill="#d1d1d1" d="M 573.5,174.5 C 573.598,176.553 572.931,178.22 571.5,179.5C 571.402,177.447 572.069,175.78 573.5,174.5 Z"/></g>
<g><path style="opacity:0.677" fill="#b3b3b3" d="M 539.5,184.5 C 539.477,190.712 538.81,196.712 537.5,202.5C 537.388,196.274 538.054,190.274 539.5,184.5 Z"/></g>
<g><path style="opacity:1" fill="#3c684a" d="M 341.5,185.5 C 343.074,187.102 343.741,189.102 343.5,191.5C 341.926,189.898 341.259,187.898 341.5,185.5 Z"/></g>
<g><path style="opacity:1" fill="#3e6d4d" d="M 301.5,209.5 C 303.245,211.033 304.245,213.033 304.5,215.5C 302.755,213.967 301.755,211.967 301.5,209.5 Z"/></g>
<g><path style="opacity:1" fill="#c0c0c0" d="M 784.5,192.5 C 789.26,209.882 793.26,227.549 796.5,245.5C 791.403,228.252 787.403,210.586 784.5,192.5 Z"/></g>
<g><path style="opacity:0.483" fill="#e2e2e2" d="M 571.5,179.5 C 564.802,202.688 560.802,226.355 559.5,250.5C 552.313,250.825 545.313,250.491 538.5,249.5C 545.167,249.5 551.833,249.5 558.5,249.5C 558.5,248.167 558.5,246.833 558.5,245.5C 559.016,232.724 560.516,220.057 563,207.5C 564.765,197.716 567.598,188.383 571.5,179.5 Z"/></g>
<g><path style="opacity:1" fill="#3e6d4d" d="M 314.5,242.5 C 316.966,246.018 317.966,250.018 317.5,254.5C 316.508,250.596 315.508,246.596 314.5,242.5 Z"/></g>
<g><path style="opacity:1" fill="#9e9e9e" d="M 535.5,240.5 C 535.5,243.167 535.5,245.833 535.5,248.5C 542.833,248.5 550.167,248.5 557.5,248.5C 557.263,247.209 557.596,246.209 558.5,245.5C 558.5,246.833 558.5,248.167 558.5,249.5C 551.833,249.5 545.167,249.5 538.5,249.5C 537.167,249.5 535.833,249.5 534.5,249.5C 534.19,246.287 534.523,243.287 535.5,240.5 Z"/></g>
<g><path style="opacity:0.424" fill="#c5c5c5" d="M 796.5,245.5 C 798.579,251.558 799.913,257.891 800.5,264.5C 799.013,261.055 797.846,257.388 797,253.5C 796.503,250.854 796.336,248.187 796.5,245.5 Z"/></g>
<g><path style="opacity:1" fill="#7d7d7d" d="M 106.5,256.5 C 106.5,260.167 106.5,263.833 106.5,267.5C 113.5,267.5 120.5,267.5 127.5,267.5C 127.198,264.941 127.532,262.607 128.5,260.5C 128.5,263.167 128.5,265.833 128.5,268.5C 120.833,269.833 113.167,269.833 105.5,268.5C 105.183,264.298 105.517,260.298 106.5,256.5 Z"/></g>
<g><path style="opacity:0.808" fill="#d8d8d8" d="M 253.5,149.5 C 255.255,150.072 256.922,150.906 258.5,152C 274.592,167.679 287.092,185.846 296,206.5C 304.2,229.268 311.7,252.268 318.5,275.5C 318.41,278.152 319.076,280.485 320.5,282.5C 326.426,303.479 330.76,324.813 333.5,346.5C 328.26,321.825 322.427,297.158 316,272.5C 308.152,242.287 297.152,213.287 283,185.5C 275.163,171.833 265.329,159.833 253.5,149.5 Z"/></g>
<g><path style="opacity:1" fill="#7b7b7b" d="M 318.5,275.5 C 319.924,277.515 320.59,279.848 320.5,282.5C 319.076,280.485 318.41,278.152 318.5,275.5 Z"/></g>
<g><path style="opacity:0.075" fill="#dddddd" d="M 636.5,118.5 C 644.867,118.295 653.2,118.629 661.5,119.5C 673.364,121.931 683.697,127.265 692.5,135.5C 693.5,137.167 694.833,138.5 696.5,139.5C 714.523,163.058 728.023,189.058 737,217.5C 752.903,267.783 764.403,319.116 771.5,371.5C 771.45,378.033 770.284,384.367 768,390.5C 742.165,456.516 716.331,522.516 690.5,588.5C 690.5,587.5 690.5,586.5 690.5,585.5C 716.951,516.986 743.118,448.319 769,379.5C 769.562,370.424 768.895,361.424 767,352.5C 760.382,313.695 751.715,275.361 741,237.5C 734.835,218.174 727.835,199.174 720,180.5C 711.104,161.521 698.937,145.021 683.5,131C 657.454,115.118 631.787,115.785 606.5,133C 598.969,139.365 591.969,146.199 585.5,153.5C 597.615,134.617 614.615,122.95 636.5,118.5 Z"/></g>
<g><path style="opacity:1" fill="#3b6749" d="M 366.5,294.5 C 368.163,296.438 368.829,298.772 368.5,301.5C 367.076,299.485 366.41,297.152 366.5,294.5 Z"/></g>
<g><path style="opacity:0.06" fill="#c6c6c6" d="M 333.5,346.5 C 337.678,359.055 340.345,372.055 341.5,385.5C 340.833,384.167 340.167,382.833 339.5,381.5C 337.181,369.92 335.181,358.253 333.5,346.5 Z"/></g>
<g><path style="opacity:1" fill="#417351" d="M 345.5,399.5 C 345.612,405.817 343.946,411.483 340.5,416.5C 342.409,410.786 344.076,405.119 345.5,399.5 Z"/></g>
<g><path style="opacity:0.325" fill="#dfdfdf" d="M 339.5,381.5 C 340.167,382.833 340.833,384.167 341.5,385.5C 342.647,389.646 342.814,393.98 342,398.5C 333.962,420.132 325.462,441.465 316.5,462.5C 324.028,441.087 331.861,419.753 340,398.5C 340.554,392.812 340.387,387.145 339.5,381.5 Z"/></g>
<g><path style="opacity:0.31" fill="#dddddd" d="M 316.5,462.5 C 315.63,467.223 313.964,471.556 311.5,475.5C 312.37,470.777 314.036,466.444 316.5,462.5 Z"/></g>
<g><path style="opacity:1" fill="#a9a9a9" d="M 311.5,475.5 C 311.438,480.566 309.771,484.9 306.5,488.5C 307.596,483.868 309.263,479.534 311.5,475.5 Z"/></g>
<g><path style="opacity:1" fill="#989898" d="M 306.5,488.5 C 305.045,495.7 302.878,502.7 300,509.5C 298.914,513.346 297.081,516.68 294.5,519.5C 297.733,508.789 301.733,498.455 306.5,488.5 Z"/></g>
<g><path style="opacity:1" fill="#999999" d="M 294.5,519.5 C 293.028,526.749 290.861,533.749 288,540.5C 286.145,545.946 283.645,550.946 280.5,555.5C 284.596,543.2 289.263,531.2 294.5,519.5 Z"/></g>
<g><path style="opacity:1" fill="#b0b0b0" d="M 800.5,264.5 C 825.94,386.705 849.607,509.372 871.5,632.5C 871.5,634.167 871.5,635.833 871.5,637.5C 855.146,553.726 839.313,469.726 824,385.5C 815.199,345.329 807.366,304.995 800.5,264.5 Z"/></g>
<g><path style="opacity:1" fill="#a1a1a1" d="M 280.5,555.5 C 279.791,562.232 277.458,568.232 273.5,573.5C 275.314,567.22 277.647,561.22 280.5,555.5 Z"/></g>
<g><path style="opacity:1" fill="#417451" d="M 856.5,587.5 C 858.23,591.883 859.23,596.55 859.5,601.5C 857.77,597.117 856.77,592.45 856.5,587.5 Z"/></g>
<g><path style="opacity:1" fill="#314f3b" d="M 338.5,677.5 C 337.731,683.004 336.731,688.338 335.5,693.5C 334.932,687.743 335.932,682.41 338.5,677.5 Z"/></g>
<g><path style="opacity:1" fill="#282b29" d="M 841.5,707.5 C 841.755,709.967 842.755,711.967 844.5,713.5C 844.528,715.582 843.861,717.416 842.5,719C 846.63,732.64 850.13,746.474 853,760.5C 853.367,763.756 852.867,766.923 851.5,770C 858.702,791.177 863.035,813.011 864.5,835.5C 864.43,839.425 865.097,843.091 866.5,846.5C 870.991,863.27 874.991,880.27 878.5,897.5C 878.41,900.152 879.076,902.485 880.5,904.5C 880.851,907.903 881.518,911.237 882.5,914.5C 883.566,920.776 885.233,926.776 887.5,932.5C 888.15,934.435 888.483,936.435 888.5,938.5C 888.259,940.898 888.926,942.898 890.5,944.5C 892.346,953.875 894.846,963.209 898,972.5C 904.991,988.185 911.824,1003.85 918.5,1019.5C 918.5,1020.5 918.5,1021.5 918.5,1022.5C 916.812,1020.15 914.812,1018.15 912.5,1016.5C 908.502,1008.5 904.502,1000.5 900.5,992.5C 900.598,990.447 899.931,988.78 898.5,987.5C 898.482,984.264 897.482,981.597 895.5,979.5C 885.571,946.45 876.905,913.117 869.5,879.5C 869.59,876.848 868.924,874.515 867.5,872.5C 848.599,768.426 829.265,664.426 809.5,560.5C 807.717,562.023 807.051,564.023 807.5,566.5C 807.737,567.791 807.404,568.791 806.5,569.5C 804.733,571.792 803.733,574.458 803.5,577.5C 803.737,578.791 803.404,579.791 802.5,580.5C 800.733,582.792 799.733,585.458 799.5,588.5C 797.733,590.792 796.733,593.458 796.5,596.5C 796.737,597.791 796.404,598.791 795.5,599.5C 793.733,601.792 792.733,604.458 792.5,607.5C 790.518,609.597 789.518,612.264 789.5,615.5C 789.737,616.791 789.404,617.791 788.5,618.5C 786.733,620.792 785.733,623.458 785.5,626.5C 783.518,628.597 782.518,631.264 782.5,634.5C 782.737,635.791 782.404,636.791 781.5,637.5C 779.733,639.792 778.733,642.458 778.5,645.5C 776.733,647.792 775.733,650.458 775.5,653.5C 775.737,654.791 775.404,655.791 774.5,656.5C 773.069,657.78 772.402,659.447 772.5,661.5C 772.737,662.791 772.404,663.791 771.5,664.5C 769.733,666.792 768.733,669.458 768.5,672.5C 766.733,674.792 765.733,677.458 765.5,680.5C 765.737,681.791 765.404,682.791 764.5,683.5C 762.733,685.792 761.733,688.458 761.5,691.5C 759.733,693.792 758.733,696.458 758.5,699.5C 758.737,700.791 758.404,701.791 757.5,702.5C 755.733,704.792 754.733,707.458 754.5,710.5C 752.733,712.792 751.733,715.458 751.5,718.5C 751.737,719.791 751.404,720.791 750.5,721.5C 749.069,722.78 748.402,724.447 748.5,726.5C 748.737,727.791 748.404,728.791 747.5,729.5C 745.733,731.792 744.733,734.458 744.5,737.5C 744.737,738.791 744.404,739.791 743.5,740.5C 741.787,741.635 741.12,743.302 741.5,745.5C 741.737,746.791 741.404,747.791 740.5,748.5C 738.733,750.792 737.733,753.458 737.5,756.5C 737.737,757.791 737.404,758.791 736.5,759.5C 734.787,760.635 734.12,762.302 734.5,764.5C 734.737,765.791 734.404,766.791 733.5,767.5C 731.415,769.684 730.415,772.351 730.5,775.5C 730.737,776.791 730.404,777.791 729.5,778.5C 727.787,779.635 727.12,781.302 727.5,783.5C 727.737,784.791 727.404,785.791 726.5,786.5C 725.069,787.78 724.402,789.447 724.5,791.5C 724.405,793.786 723.738,795.786 722.5,797.5C 720.787,798.635 720.12,800.302 720.5,802.5C 720.737,803.791 720.404,804.791 719.5,805.5C 718.069,806.78 717.402,808.447 717.5,810.5C 717.405,812.786 716.738,814.786 715.5,816.5C 713.787,817.635 713.12,819.302 713.5,821.5C 713.737,822.791 713.404,823.791 712.5,824.5C 710.415,826.684 709.415,829.351 709.5,832.5C 707,835.66 705.667,839.327 705.5,843.5C 703.415,845.684 702.415,848.351 702.5,851.5C 700,854.66 698.667,858.327 698.5,862.5C 696.345,864.617 695.345,867.284 695.5,870.5C 693.345,872.617 692.345,875.284 692.5,878.5C 692.737,879.791 692.404,880.791 691.5,881.5C 689.603,883.698 688.603,886.364 688.5,889.5C 687.883,889.611 687.383,889.944 687,890.5C 682.569,901.753 680.736,913.42 681.5,925.5C 681.134,937.083 679.801,948.416 677.5,959.5C 674.508,972.803 671.174,986.136 667.5,999.5C 665.787,1000.64 665.12,1002.3 665.5,1004.5C 664.226,1006.99 663.56,1009.66 663.5,1012.5C 661.787,1013.64 661.12,1015.3 661.5,1017.5C 657.886,1022.33 655.22,1027.66 653.5,1033.5C 650.498,1036.16 648.498,1039.49 647.5,1043.5C 644.529,1045.44 642.529,1048.11 641.5,1051.5C 639.413,1052.58 638.08,1054.25 637.5,1056.5C 637.167,1057.5 636.5,1058.17 635.5,1058.5C 631.785,1061.55 628.452,1064.88 625.5,1068.5C 613.626,1077.6 600.293,1083.77 585.5,1087C 578.168,1087.8 570.834,1088.13 563.5,1088C 554.469,1086.03 545.469,1083.86 536.5,1081.5C 532.818,1078.99 528.818,1076.99 524.5,1075.5C 523.599,1073.27 521.933,1072.27 519.5,1072.5C 519.179,1070.95 518.179,1070.29 516.5,1070.5C 516.179,1068.95 515.179,1068.29 513.5,1068.5C 505.526,1060.86 497.526,1053.19 489.5,1045.5C 488.567,1042.63 486.9,1040.3 484.5,1038.5C 484.25,1036.33 483.25,1034.66 481.5,1033.5C 477.537,1023.92 473.203,1014.59 468.5,1005.5C 465.208,994.621 461.541,983.955 457.5,973.5C 456.596,972.791 456.263,971.791 456.5,970.5C 456.741,968.102 456.074,966.102 454.5,964.5C 454.5,964.167 454.5,963.833 454.5,963.5C 454.741,961.102 454.074,959.102 452.5,957.5C 451.699,955.958 451.366,954.292 451.5,952.5C 450.99,948.116 450.157,943.782 449,939.5C 448.617,938.944 448.117,938.611 447.5,938.5C 447.5,938.167 447.5,937.833 447.5,937.5C 446.831,932.486 445.997,927.486 445,922.5C 444.617,921.944 444.117,921.611 443.5,921.5C 443.5,921.167 443.5,920.833 443.5,920.5C 443.246,915.556 442.246,910.889 440.5,906.5C 440.246,901.556 439.246,896.889 437.5,892.5C 436.96,883.801 435.294,875.468 432.5,867.5C 432.5,867.167 432.5,866.833 432.5,866.5C 422.042,805.549 410.708,744.882 398.5,684.5C 396.883,679.067 395.883,673.4 395.5,667.5C 395.678,663.878 395.011,660.544 393.5,657.5C 390.659,644.958 388.325,632.291 386.5,619.5C 386.085,612.529 384.752,605.862 382.5,599.5C 382.255,593.523 380.922,587.856 378.5,582.5C 362.476,623.395 347.309,664.729 333,706.5C 301.513,790.783 270.18,875.116 239,959.5C 237.518,964.108 236.351,968.775 235.5,973.5C 234.069,974.903 232.902,976.569 232,978.5C 230.518,983.108 229.351,987.775 228.5,992.5C 224.509,998.064 222.176,1004.4 221.5,1011.5C 220.069,1012.9 218.902,1014.57 218,1016.5C 215.074,1023.6 212.907,1030.93 211.5,1038.5C 210.25,1038.58 209.417,1039.24 209,1040.5C 206.408,1048.78 203.908,1057.11 201.5,1065.5C 200.542,1065.95 199.708,1066.62 199,1067.5C 198.513,1070.8 197.347,1073.8 195.5,1076.5C 156.839,1077.5 118.172,1077.83 79.5,1077.5C 109.761,996.705 140.761,916.371 172.5,836.5C 173.485,840.634 173.818,844.968 173.5,849.5C 167.916,860.963 162.916,872.63 158.5,884.5C 156.065,888.799 154.398,893.466 153.5,898.5C 146.052,920.364 137.552,941.697 128,962.5C 124.867,971.368 122.2,980.368 120,989.5C 117.306,992.194 114.64,994.86 112,997.5C 111.667,1002.17 111.333,1006.83 111,1011.5C 102.166,1031.51 93.3328,1051.51 84.5,1071.5C 119.829,1072.67 155.162,1072.83 190.5,1072C 193.667,1066.5 196.833,1061 200,1055.5C 204.614,1041.83 209.114,1028.16 213.5,1014.5C 215.097,1012.15 216.097,1009.49 216.5,1006.5C 244.463,930.409 272.63,854.742 301,779.5C 303.402,769.96 306.402,760.627 310,751.5C 316.965,735.515 322.798,719.015 327.5,702C 329.628,698.704 332.295,695.871 335.5,693.5C 336.731,688.338 337.731,683.004 338.5,677.5C 338.605,673.681 339.438,670.014 341,666.5C 348.853,646.067 356.853,625.734 365,605.5C 368.327,596.351 370.827,587.018 372.5,577.5C 376.833,577.5 381.167,577.5 385.5,577.5C 396.327,641.273 407.993,704.94 420.5,768.5C 420.061,770.104 419.394,771.604 418.5,773C 422.193,783.606 425.027,794.44 427,805.5C 431.765,836.326 437.432,866.993 444,897.5C 449.764,919.654 454.764,941.988 459,964.5C 461.134,970.568 463.467,976.568 466,982.5C 466.705,986.908 467.705,991.241 469,995.5C 476.333,1010.17 483.667,1024.83 491,1039.5C 498.625,1049.29 508.125,1056.63 519.5,1061.5C 521.938,1065.44 524.938,1068.94 528.5,1072C 542.371,1078 556.871,1082.17 572,1084.5C 579.247,1083.85 586.414,1082.68 593.5,1081C 601.356,1077.24 609.022,1073.24 616.5,1069C 625.333,1058.83 634.833,1049.33 645,1040.5C 647,1037.17 649,1033.83 651,1030.5C 656.687,1014.11 662.687,997.778 669,981.5C 670.08,971.354 671.913,961.354 674.5,951.5C 673.003,947.838 671.503,944.172 670,940.5C 669.333,937.167 669.333,933.833 670,930.5C 672.082,921.417 674.416,912.417 677,903.5C 685.468,880.393 694.468,857.726 704,835.5C 707.913,819.417 713.58,804.084 721,789.5C 723.356,780.077 726.022,770.744 729,761.5C 751.229,704.646 772.562,647.313 793,589.5C 797.179,580.964 800.179,571.964 802,562.5C 804.539,557.788 808.373,554.788 813.5,553.5C 818.671,581.52 824.171,609.52 830,637.5C 830.592,640.694 830.426,643.861 829.5,647C 835.107,666.87 839.107,687.037 841.5,707.5 Z"/></g>
<g><path style="opacity:0.333" fill="#d3d3d3" d="M 764.5,683.5 C 764.267,686.542 763.267,689.208 761.5,691.5C 761.733,688.458 762.733,685.792 764.5,683.5 Z"/></g>
<g><path style="opacity:0.42" fill="#d1d1d1" d="M 768.5,672.5 C 768.267,675.542 767.267,678.208 765.5,680.5C 765.733,677.458 766.733,674.792 768.5,672.5 Z"/></g>
<g><path style="opacity:0.357" fill="#d3d3d3" d="M 771.5,664.5 C 771.267,667.542 770.267,670.208 768.5,672.5C 768.733,669.458 769.733,666.792 771.5,664.5 Z"/></g>
<g><path style="opacity:0.227" fill="#dedede" d="M 393.5,657.5 C 395.011,660.544 395.678,663.878 395.5,667.5C 394.215,664.411 393.549,661.078 393.5,657.5 Z"/></g>
<g><path style="opacity:0.435" fill="#d6d6d6" d="M 774.5,656.5 C 774.598,658.553 773.931,660.22 772.5,661.5C 772.402,659.447 773.069,657.78 774.5,656.5 Z"/></g>
<g><path style="opacity:0.373" fill="#d3d3d3" d="M 778.5,645.5 C 778.267,648.542 777.267,651.208 775.5,653.5C 775.733,650.458 776.733,647.792 778.5,645.5 Z"/></g>
<g><path style="opacity:0.451" fill="#d5d5d5" d="M 781.5,637.5 C 781.267,640.542 780.267,643.208 778.5,645.5C 778.733,642.458 779.733,639.792 781.5,637.5 Z"/></g>
<g><path style="opacity:0.388" fill="#c9c9c9" d="M 785.5,626.5 C 785.267,629.542 784.267,632.208 782.5,634.5C 782.518,631.264 783.518,628.597 785.5,626.5 Z"/></g>
<g><path style="opacity:0.404" fill="#c9c9c9" d="M 867.5,872.5 C 867.5,873.833 867.5,875.167 867.5,876.5C 847.265,772.775 827.765,668.775 809,564.5C 808.722,565.416 808.222,566.082 807.5,566.5C 807.051,564.023 807.717,562.023 809.5,560.5C 829.265,664.426 848.599,768.426 867.5,872.5 Z"/></g>
<g><path style="opacity:0.467" fill="#d5d5d5" d="M 788.5,618.5 C 788.267,621.542 787.267,624.208 785.5,626.5C 785.733,623.458 786.733,620.792 788.5,618.5 Z"/></g>
<g><path style="opacity:0.396" fill="#cacaca" d="M 792.5,607.5 C 792.267,610.542 791.267,613.208 789.5,615.5C 789.518,612.264 790.518,609.597 792.5,607.5 Z"/></g>
<g><path style="opacity:0.192" fill="#e9e9e9" d="M 382.5,599.5 C 384.752,605.862 386.085,612.529 386.5,619.5C 384.549,613.077 383.215,606.411 382.5,599.5 Z"/></g>
<g><path style="opacity:0.478" fill="#d5d5d5" d="M 795.5,599.5 C 795.267,602.542 794.267,605.208 792.5,607.5C 792.733,604.458 793.733,601.792 795.5,599.5 Z"/></g>
<g><path style="opacity:0.408" fill="#d2d2d2" d="M 799.5,588.5 C 799.267,591.542 798.267,594.208 796.5,596.5C 796.733,593.458 797.733,590.792 799.5,588.5 Z"/></g>
<g><path style="opacity:0.478" fill="#d5d5d5" d="M 802.5,580.5 C 802.267,583.542 801.267,586.208 799.5,588.5C 799.733,585.458 800.733,582.792 802.5,580.5 Z"/></g>
<g><path style="opacity:0.663" fill="#d1d1d1" d="M 806.5,569.5 C 806.267,572.542 805.267,575.208 803.5,577.5C 803.733,574.458 804.733,571.792 806.5,569.5 Z"/></g>
<g><path style="opacity:0.392" fill="#d1d1d1" d="M 761.5,691.5 C 761.267,694.542 760.267,697.208 758.5,699.5C 758.733,696.458 759.733,693.792 761.5,691.5 Z"/></g>
<g><path style="opacity:0.447" fill="#cfcfcf" d="M 398.5,684.5 C 410.708,744.882 422.042,805.549 432.5,866.5C 420.538,806.075 409.205,745.408 398.5,684.5 Z"/></g>
<g><path style="opacity:0.177" fill="#cecece" d="M 871.5,632.5 C 882.192,688.127 893.359,743.793 905,799.5C 911.465,827.697 919.631,855.364 929.5,882.5C 929.5,883.5 929.5,884.5 929.5,885.5C 925.204,875.795 921.371,865.795 918,855.5C 912.389,835.935 907.056,816.268 902,796.5C 890.745,743.726 880.579,690.726 871.5,637.5C 871.5,635.833 871.5,634.167 871.5,632.5 Z"/></g>
<g><path style="opacity:0.314" fill="#d3d3d3" d="M 757.5,702.5 C 757.267,705.542 756.267,708.208 754.5,710.5C 754.733,707.458 755.733,704.792 757.5,702.5 Z"/></g>
<g><path style="opacity:1" fill="#3c674a" d="M 841.5,707.5 C 843.245,709.033 844.245,711.033 844.5,713.5C 842.755,711.967 841.755,709.967 841.5,707.5 Z"/></g>
<g><path style="opacity:0.373" fill="#d1d1d1" d="M 754.5,710.5 C 754.267,713.542 753.267,716.208 751.5,718.5C 751.733,715.458 752.733,712.792 754.5,710.5 Z"/></g>
<g><path style="opacity:0.427" fill="#d7d7d7" d="M 750.5,721.5 C 750.598,723.553 749.931,725.22 748.5,726.5C 748.402,724.447 749.069,722.78 750.5,721.5 Z"/></g>
<g><path style="opacity:0.151" fill="#e5e5e5" d="M 431.5,595.5 C 444.037,659.687 456.537,724.021 469,788.5C 477.297,834.387 490.63,878.721 509,921.5C 517.383,938.594 528.883,953.261 543.5,965.5C 543.649,966.552 543.483,967.552 543,968.5C 525.508,953.178 512.174,934.844 503,913.5C 487.142,873.757 475.142,832.757 467,790.5C 454.655,727.245 442.821,663.912 431.5,600.5C 431.5,598.833 431.5,597.167 431.5,595.5 Z"/></g>
<g><path style="opacity:0.345" fill="#d1d1d1" d="M 747.5,729.5 C 747.267,732.542 746.267,735.208 744.5,737.5C 744.733,734.458 745.733,731.792 747.5,729.5 Z"/></g>
<g><path style="opacity:0.937" fill="#c5c5c5" d="M 743.5,740.5 C 743.598,742.553 742.931,744.22 741.5,745.5C 741.12,743.302 741.787,741.635 743.5,740.5 Z"/></g>
<g><path style="opacity:0.137" fill="#f1f1f1" d="M 690.5,585.5 C 690.5,586.5 690.5,587.5 690.5,588.5C 649.243,695.261 607.576,801.927 565.5,908.5C 605.815,800.221 647.482,692.554 690.5,585.5 Z"/></g>
<g><path style="opacity:0.329" fill="#d4d4d4" d="M 740.5,748.5 C 740.267,751.542 739.267,754.208 737.5,756.5C 737.733,753.458 738.733,750.792 740.5,748.5 Z"/></g>
<g><path style="opacity:0.922" fill="#c5c5c5" d="M 736.5,759.5 C 736.598,761.553 735.931,763.22 734.5,764.5C 734.12,762.302 734.787,760.635 736.5,759.5 Z"/></g>
<g><path style="opacity:0.824" fill="#d2d2d2" d="M 382.5,599.5 C 381.047,595.709 379.881,591.709 379,587.5C 377.289,589.956 375.956,592.623 375,595.5C 328.962,721.791 282.462,847.791 235.5,973.5C 236.351,968.775 237.518,964.108 239,959.5C 270.18,875.116 301.513,790.783 333,706.5C 347.309,664.729 362.476,623.395 378.5,582.5C 380.922,587.856 382.255,593.523 382.5,599.5 Z"/></g>
<g><path style="opacity:0.855" fill="#c0c0c0" d="M 733.5,767.5 C 733.267,770.542 732.267,773.208 730.5,775.5C 730.415,772.351 731.415,769.684 733.5,767.5 Z"/></g>
<g><path style="opacity:0.914" fill="#c6c6c6" d="M 729.5,778.5 C 729.598,780.553 728.931,782.22 727.5,783.5C 727.12,781.302 727.787,779.635 729.5,778.5 Z"/></g>
<g><path style="opacity:0.439" fill="#d2d2d2" d="M 726.5,786.5 C 726.598,788.553 725.931,790.22 724.5,791.5C 724.402,789.447 725.069,787.78 726.5,786.5 Z"/></g>
<g><path style="opacity:0.906" fill="#c5c5c5" d="M 722.5,797.5 C 722.598,799.553 721.931,801.22 720.5,802.5C 720.12,800.302 720.787,798.635 722.5,797.5 Z"/></g>
<g><path style="opacity:1" fill="#33543e" d="M 898.5,795.5 C 900.148,800.921 901.148,806.588 901.5,812.5C 899.613,807.128 898.613,801.461 898.5,795.5 Z"/></g>
<g><path style="opacity:0.435" fill="#d3d3d3" d="M 719.5,805.5 C 719.598,807.553 718.931,809.22 717.5,810.5C 717.402,808.447 718.069,806.78 719.5,805.5 Z"/></g>
<g><path style="opacity:0.906" fill="#c5c5c5" d="M 715.5,816.5 C 715.598,818.553 714.931,820.22 713.5,821.5C 713.12,819.302 713.787,817.635 715.5,816.5 Z"/></g>
<g><path style="opacity:0.847" fill="#bfbfbf" d="M 712.5,824.5 C 712.02,827.443 711.02,830.11 709.5,832.5C 709.415,829.351 710.415,826.684 712.5,824.5 Z"/></g>
<g><path style="opacity:1" fill="#3b5b45" d="M 173.5,833.5 C 173.328,834.492 173.662,835.158 174.5,835.5C 174.819,840.363 174.486,845.03 173.5,849.5C 173.818,844.968 173.485,840.634 172.5,836.5C 172.263,835.209 172.596,834.209 173.5,833.5 Z"/></g>
<g><path style="opacity:0.914" fill="#bcbcbc" d="M 709.5,832.5 C 708.935,836.537 707.601,840.203 705.5,843.5C 705.667,839.327 707,835.66 709.5,832.5 Z"/></g>
<g><path style="opacity:1" fill="#3f704f" d="M 864.5,835.5 C 865.903,838.909 866.57,842.575 866.5,846.5C 865.097,843.091 864.43,839.425 864.5,835.5 Z"/></g>
<g><path style="opacity:1" fill="#3f6f4e" d="M 906.5,833.5 C 908.68,836.381 909.68,839.714 909.5,843.5C 907.975,840.417 906.975,837.084 906.5,833.5 Z"/></g>
<g><path style="opacity:0.447" fill="#cecece" d="M 705.5,843.5 C 705.267,846.542 704.267,849.208 702.5,851.5C 702.415,848.351 703.415,845.684 705.5,843.5 Z"/></g>
<g><path style="opacity:1" fill="#3e6d4d" d="M 909.5,843.5 C 911.267,845.792 912.267,848.458 912.5,851.5C 910.415,849.316 909.415,846.649 909.5,843.5 Z"/></g>
<g><path style="opacity:0.533" fill="#c8c8c8" d="M 702.5,851.5 C 701.935,855.537 700.601,859.203 698.5,862.5C 698.667,858.327 700,854.66 702.5,851.5 Z"/></g>
<g><path style="opacity:1" fill="#3e6e4e" d="M 913.5,856.5 C 915.267,858.792 916.267,861.458 916.5,864.5C 914.415,862.316 913.415,859.649 913.5,856.5 Z"/></g>
<g><path style="opacity:0.973" fill="#c4c4c4" d="M 698.5,862.5 C 698.267,865.542 697.267,868.208 695.5,870.5C 695.345,867.284 696.345,864.617 698.5,862.5 Z"/></g>
<g><path style="opacity:0.096" fill="#c2c2c2" d="M 1090.5,844.5 C 1098.35,844.175 1106.02,844.508 1113.5,845.5C 1105.83,845.5 1098.17,845.5 1090.5,845.5C 1089.07,863.057 1086.24,880.39 1082,897.5C 1081.62,898.056 1081.12,898.389 1080.5,898.5C 1084.5,880.503 1087.83,862.503 1090.5,844.5 Z"/></g>
<g><path style="opacity:1" fill="#b7b7b7" d="M 695.5,870.5 C 695.267,873.542 694.267,876.208 692.5,878.5C 692.345,875.284 693.345,872.617 695.5,870.5 Z"/></g>
<g><path style="opacity:0.247" fill="#c1c1c1" d="M 432.5,867.5 C 435.294,875.468 436.96,883.801 437.5,892.5C 435.473,884.363 433.806,876.029 432.5,867.5 Z"/></g>
<g><path style="opacity:1" fill="#3f6f4f" d="M 918.5,872.5 C 920.163,874.438 920.829,876.772 920.5,879.5C 919.076,877.485 918.41,875.152 918.5,872.5 Z"/></g>
<g><path style="opacity:1" fill="#7d7d7d" d="M 867.5,872.5 C 868.924,874.515 869.59,876.848 869.5,879.5C 868.833,878.5 868.167,877.5 867.5,876.5C 867.5,875.167 867.5,873.833 867.5,872.5 Z"/></g>
<g><path style="opacity:0.065" fill="#dcdcdc" d="M 691.5,881.5 C 691.267,884.542 690.267,887.208 688.5,889.5C 688.603,886.364 689.603,883.698 691.5,881.5 Z"/></g>
<g><path style="opacity:1" fill="#33553e" d="M 158.5,884.5 C 157.602,889.534 155.935,894.201 153.5,898.5C 154.398,893.466 156.065,888.799 158.5,884.5 Z"/></g>
<g><path style="opacity:0.106" fill="#e6e6e6" d="M 1080.5,898.5 C 1080.38,903.004 1079.05,907.004 1076.5,910.5C 1077.26,906.216 1078.59,902.216 1080.5,898.5 Z"/></g>
<g><path style="opacity:0.196" fill="#dcdcdc" d="M 437.5,892.5 C 439.246,896.889 440.246,901.556 440.5,906.5C 438.754,902.111 437.754,897.444 437.5,892.5 Z"/></g>
<g><path style="opacity:0.116" fill="#d4d4d4" d="M 688.5,889.5 C 684.858,901.372 682.525,913.372 681.5,925.5C 680.736,913.42 682.569,901.753 687,890.5C 687.383,889.944 687.883,889.611 688.5,889.5 Z"/></g>
<g><path style="opacity:1" fill="#3f6f4e" d="M 878.5,897.5 C 879.924,899.515 880.59,901.848 880.5,904.5C 879.076,902.485 878.41,900.152 878.5,897.5 Z"/></g>
<g><path style="opacity:0.063" fill="#ececec" d="M 565.5,908.5 C 565.267,911.542 564.267,914.208 562.5,916.5C 562.733,913.458 563.733,910.792 565.5,908.5 Z"/></g>
<g><path style="opacity:0.184" fill="#e0e0e0" d="M 440.5,906.5 C 442.246,910.889 443.246,915.556 443.5,920.5C 441.754,916.111 440.754,911.444 440.5,906.5 Z"/></g>
<g><path style="opacity:0.255" fill="#c1c1c1" d="M 867.5,876.5 C 868.167,877.5 868.833,878.5 869.5,879.5C 876.905,913.117 885.571,946.45 895.5,979.5C 883.226,946.079 873.892,911.746 867.5,876.5 Z"/></g>
<g><path style="opacity:1" fill="#467e57" d="M 882.5,914.5 C 885.077,920.131 886.744,926.131 887.5,932.5C 885.233,926.776 883.566,920.776 882.5,914.5 Z"/></g>
<g><path style="opacity:0.086" fill="#f1f1f1" d="M 562.5,916.5 C 562.598,918.553 561.931,920.22 560.5,921.5C 560.402,919.447 561.069,917.78 562.5,916.5 Z"/></g>
<g><path style="opacity:1" fill="#b8b8b8" d="M 560.5,921.5 C 560.397,924.636 559.397,927.302 557.5,929.5C 557.733,926.458 558.733,923.792 560.5,921.5 Z"/></g>
<g><path style="opacity:0.553" fill="#cfcfcf" d="M 443.5,921.5 C 444.117,921.611 444.617,921.944 445,922.5C 445.997,927.486 446.831,932.486 447.5,937.5C 445.565,932.429 444.232,927.095 443.5,921.5 Z"/></g>
<g><path style="opacity:0.084" fill="#eaeaea" d="M 557.5,929.5 C 557.598,931.553 556.931,933.22 555.5,934.5C 555.402,932.447 556.069,930.78 557.5,929.5 Z"/></g>
<g><path style="opacity:1" fill="#dedede" d="M 929.5,882.5 C 936.954,901.121 947.121,918.121 960,933.5C 985.062,961.781 1014.23,967.281 1047.5,950C 1060.47,939.205 1070.14,926.038 1076.5,910.5C 1071.52,926.95 1062.18,940.45 1048.5,951C 1023.74,965.237 999.071,964.903 974.5,950C 953.304,932.667 938.304,911.167 929.5,885.5C 929.5,884.5 929.5,883.5 929.5,882.5 Z"/></g>
<g><path style="opacity:1" fill="#b7b7b7" d="M 555.5,934.5 C 555.397,937.636 554.397,940.302 552.5,942.5C 552.733,939.458 553.733,936.792 555.5,934.5 Z"/></g>
<g><path style="opacity:1" fill="#3c6a4c" d="M 888.5,938.5 C 890.074,940.102 890.741,942.102 890.5,944.5C 888.926,942.898 888.259,940.898 888.5,938.5 Z"/></g>
<g><path style="opacity:1" fill="#aaaaaa" d="M 552.5,942.5 C 552.88,944.698 552.213,946.365 550.5,947.5C 550.402,945.447 551.069,943.78 552.5,942.5 Z"/></g>
<g><path style="opacity:0.027" fill="#d1d1d1" d="M 447.5,938.5 C 448.117,938.611 448.617,938.944 449,939.5C 450.157,943.782 450.99,948.116 451.5,952.5C 449.566,948.112 448.233,943.445 447.5,938.5 Z"/></g>
<g><path style="opacity:0.275" fill="#dfdfdf" d="M 1090.5,844.5 C 1098.32,843.508 1106.32,843.174 1114.5,843.5C 1116,888.55 1111.16,932.883 1100,976.5C 1091.64,1008.83 1074.48,1035.33 1048.5,1056C 1023.27,1072.14 996.6,1074.81 968.5,1064C 964.041,1062.48 960.041,1060.31 956.5,1057.5C 998.527,1077.93 1035.36,1070.93 1067,1036.5C 1084.23,1014.47 1095.9,989.806 1102,962.5C 1110.28,923.946 1114.11,884.946 1113.5,845.5C 1106.02,844.508 1098.35,844.175 1090.5,844.5 Z"/></g>
<g><path style="opacity:0.992" fill="#cfcfcf" d="M 550.5,947.5 C 550.267,950.542 549.267,953.208 547.5,955.5C 547.733,952.458 548.733,949.792 550.5,947.5 Z"/></g>
<g><path style="opacity:1" fill="#a9a9a9" d="M 547.5,955.5 C 547.88,957.698 547.213,959.365 545.5,960.5C 545.402,958.447 546.069,956.78 547.5,955.5 Z"/></g>
<g><path style="opacity:0.475" fill="#dddddd" d="M 452.5,957.5 C 454.074,959.102 454.741,961.102 454.5,963.5C 453.262,961.786 452.595,959.786 452.5,957.5 Z"/></g>
<g><path style="opacity:0.055" fill="#e9e9e9" d="M 545.5,960.5 C 545.598,962.553 544.931,964.22 543.5,965.5C 543.402,963.447 544.069,961.78 545.5,960.5 Z"/></g>
<g><path style="opacity:1" fill="#437754" d="M 1038.5,963.5 C 1032.08,965.058 1025.41,965.724 1018.5,965.5C 1013.32,965.499 1008.32,965.166 1003.5,964.5C 1015.19,964.666 1026.85,964.333 1038.5,963.5 Z"/></g>
<g><path style="opacity:0.447" fill="#dddddd" d="M 454.5,964.5 C 456.074,966.102 456.741,968.102 456.5,970.5C 455.262,968.786 454.595,966.786 454.5,964.5 Z"/></g>
<g><path style="opacity:0.42" fill="#c4c4c4" d="M 677.5,959.5 C 675.713,973.976 672.38,987.976 667.5,1001.5C 667.5,1000.83 667.5,1000.17 667.5,999.5C 671.174,986.136 674.508,972.803 677.5,959.5 Z"/></g>
<g><path style="opacity:0.318" fill="#d5d5d5" d="M 273.5,573.5 C 240.734,660.368 207.401,747.035 173.5,833.5C 172.596,834.209 172.263,835.209 172.5,836.5C 140.761,916.371 109.761,996.705 79.5,1077.5C 118.172,1077.83 156.839,1077.5 195.5,1076.5C 197.347,1073.8 198.513,1070.8 199,1067.5C 199.708,1066.62 200.542,1065.95 201.5,1065.5C 200.124,1069.92 198.457,1074.26 196.5,1078.5C 157.172,1079.5 117.839,1079.83 78.5,1079.5C 79.0662,1073.29 80.5662,1067.29 83,1061.5C 145.841,898.458 209.341,735.791 273.5,573.5 Z"/></g>
<g><path style="opacity:0.035" fill="#e4e4e4" d="M 457.5,973.5 C 461.541,983.955 465.208,994.621 468.5,1005.5C 463.664,995.327 459.997,984.661 457.5,973.5 Z"/></g>
<g><path style="opacity:0.98" fill="#d9d9d9" d="M 235.5,973.5 C 233.738,980.127 231.405,986.461 228.5,992.5C 229.351,987.775 230.518,983.108 232,978.5C 232.902,976.569 234.069,974.903 235.5,973.5 Z"/></g>
<g><path style="opacity:0.157" fill="#cecece" d="M 895.5,979.5 C 897.482,981.597 898.482,984.264 898.5,987.5C 896.733,985.208 895.733,982.542 895.5,979.5 Z"/></g>
<g><path style="opacity:0.224" fill="#e8e8e8" d="M 898.5,987.5 C 899.931,988.78 900.598,990.447 900.5,992.5C 899.069,991.22 898.402,989.553 898.5,987.5 Z"/></g>
<g><path style="opacity:0.949" fill="#d0d0d0" d="M 228.5,992.5 C 226.738,999.127 224.405,1005.46 221.5,1011.5C 222.176,1004.4 224.509,998.064 228.5,992.5 Z"/></g>
<g><path style="opacity:0.592" fill="#e2e2e2" d="M 900.5,992.5 C 904.502,1000.5 908.502,1008.5 912.5,1016.5C 906.932,1009.36 902.932,1001.36 900.5,992.5 Z"/></g>
<g><path style="opacity:1" fill="#727272" d="M 667.5,999.5 C 667.5,1000.17 667.5,1000.83 667.5,1001.5C 667.737,1002.79 667.404,1003.79 666.5,1004.5C 666.167,1004.5 665.833,1004.5 665.5,1004.5C 665.12,1002.3 665.787,1000.64 667.5,999.5 Z"/></g>
<g><path style="opacity:0.863" fill="#c6c6c6" d="M 665.5,1004.5 C 665.833,1004.5 666.167,1004.5 666.5,1004.5C 666.02,1007.44 665.02,1010.11 663.5,1012.5C 663.56,1009.66 664.226,1006.99 665.5,1004.5 Z"/></g>
<g><path style="opacity:1" fill="#3f704f" d="M 216.5,1006.5 C 216.097,1009.49 215.097,1012.15 213.5,1014.5C 213.603,1011.36 214.603,1008.7 216.5,1006.5 Z"/></g>
<g><path style="opacity:0.937" fill="#d0d0d0" d="M 221.5,1011.5 C 218.934,1020.87 215.601,1029.87 211.5,1038.5C 212.907,1030.93 215.074,1023.6 218,1016.5C 218.902,1014.57 220.069,1012.9 221.5,1011.5 Z"/></g>
<g><path style="opacity:0.729" fill="#c1c1c1" d="M 663.5,1012.5 C 663.204,1014.4 662.537,1016.07 661.5,1017.5C 661.12,1015.3 661.787,1013.64 663.5,1012.5 Z"/></g>
<g><path style="opacity:0.533" fill="#c9c9c9" d="M 661.5,1017.5 C 659.868,1023.43 657.202,1028.76 653.5,1033.5C 655.22,1027.66 657.886,1022.33 661.5,1017.5 Z"/></g>
<g><path style="opacity:1" fill="#53785f" d="M 918.5,1019.5 C 920.074,1021.1 920.741,1023.1 920.5,1025.5C 919.094,1025.03 918.427,1024.03 918.5,1022.5C 918.5,1021.5 918.5,1020.5 918.5,1019.5 Z"/></g>
<g><path style="opacity:0.224" fill="#dcdcdc" d="M 468.5,1005.5 C 473.203,1014.59 477.537,1023.92 481.5,1033.5C 475.641,1024.95 471.308,1015.61 468.5,1005.5 Z"/></g>
<g><path style="opacity:0.38" fill="#dfdfdf" d="M 481.5,1033.5 C 483.25,1034.66 484.25,1036.33 484.5,1038.5C 482.75,1037.34 481.75,1035.67 481.5,1033.5 Z"/></g>
<g><path style="opacity:0.525" fill="#d2d2d2" d="M 653.5,1033.5 C 652.502,1037.51 650.502,1040.84 647.5,1043.5C 648.498,1039.49 650.498,1036.16 653.5,1033.5 Z"/></g>
<g><path style="opacity:0.455" fill="#d5d6d5" d="M 912.5,1016.5 C 914.812,1018.15 916.812,1020.15 918.5,1022.5C 918.427,1024.03 919.094,1025.03 920.5,1025.5C 921.604,1027.39 922.937,1029.06 924.5,1030.5C 933.994,1041 944.661,1050 956.5,1057.5C 937.958,1047.96 923.292,1034.29 912.5,1016.5 Z"/></g>
<g><path style="opacity:0.016" fill="#e2e2e2" d="M 484.5,1038.5 C 486.9,1040.3 488.567,1042.63 489.5,1045.5C 487.1,1043.7 485.433,1041.37 484.5,1038.5 Z"/></g>
<g><path style="opacity:0.012" fill="#d6d6d6" d="M 647.5,1043.5 C 646.471,1046.89 644.471,1049.56 641.5,1051.5C 642.529,1048.11 644.529,1045.44 647.5,1043.5 Z"/></g>
<g><path style="opacity:0.161" fill="#c3c3c3" d="M 489.5,1045.5 C 497.526,1053.19 505.526,1060.86 513.5,1068.5C 511.405,1067.59 509.405,1066.42 507.5,1065C 500.904,1058.91 494.904,1052.41 489.5,1045.5 Z"/></g>
<g><path style="opacity:0.067" fill="#d0d0d0" d="M 641.5,1051.5 C 640.92,1053.75 639.587,1055.42 637.5,1056.5C 638.08,1054.25 639.413,1052.58 641.5,1051.5 Z"/></g>
<g><path style="opacity:0.412" fill="#d2d2d2" d="M 211.5,1038.5 C 208.541,1047.72 205.208,1056.72 201.5,1065.5C 203.908,1057.11 206.408,1048.78 209,1040.5C 209.417,1039.24 210.25,1038.58 211.5,1038.5 Z"/></g>
<g><path style="opacity:0.008" fill="#e8e8e8" d="M 635.5,1058.5 C 633.167,1062.83 629.833,1066.17 625.5,1068.5C 628.452,1064.88 631.785,1061.55 635.5,1058.5 Z"/></g>
<g><path style="opacity:0.604" fill="#d3d3d3" d="M 513.5,1068.5 C 515.179,1068.29 516.179,1068.95 516.5,1070.5C 514.973,1070.57 513.973,1069.91 513.5,1068.5 Z"/></g>
<g><path style="opacity:0.592" fill="#d2d2d2" d="M 516.5,1070.5 C 518.179,1070.29 519.179,1070.95 519.5,1072.5C 517.973,1072.57 516.973,1071.91 516.5,1070.5 Z"/></g>
<g><path style="opacity:0.42" fill="#d3d3d3" d="M 519.5,1072.5 C 521.933,1072.27 523.599,1073.27 524.5,1075.5C 522.326,1075.25 520.659,1074.25 519.5,1072.5 Z"/></g>
<g><path style="opacity:0.255" fill="#dedede" d="M 524.5,1075.5 C 528.818,1076.99 532.818,1078.99 536.5,1081.5C 531.914,1080.54 527.914,1078.54 524.5,1075.5 Z"/></g>
<g><path style="opacity:0.012" fill="#d2d2d2" d="M 625.5,1068.5 C 613.843,1079.83 599.843,1086.66 583.5,1089C 566.979,1091.02 551.312,1088.52 536.5,1081.5C 545.469,1083.86 554.469,1086.03 563.5,1088C 570.834,1088.13 578.168,1087.8 585.5,1087C 600.293,1083.77 613.626,1077.6 625.5,1068.5 Z"/></g>
</svg>
